<?xml version="1.0" standalone="no"?>
<!DOCTYPE svg PUBLIC "-//W3C//DTD SVG 20010904//EN"
 "http://www.w3.org/TR/2001/REC-SVG-20010904/DTD/svg10.dtd">
<svg version="1.0" xmlns="http://www.w3.org/2000/svg"
 width="226.000000pt" height="42.000000pt" viewBox="0 0 226.000000 42.000000"
 preserveAspectRatio="xMidYMid meet">
<metadata>
Created by potrace 1.16, written by Peter Selinger 2001-2019
</metadata>
<g transform="translate(0.000000,42.000000) scale(0.100000,-0.100000)"
fill="#000000" stroke="none">
<path d="M260 396 c0 -19 -6 -25 -27 -28 l-27 -3 -2 -102 c-2 -96 -1 -103 17
-103 23 0 25 -23 3 -41 -23 -19 -64 -86 -64 -104 0 -9 9 -15 23 -15 18 0 35
17 70 67 l47 67 0 -67 c0 -60 2 -67 20 -67 18 0 20 7 20 67 l0 67 47 -67 c35
-50 52 -67 70 -67 33 0 29 21 -17 93 -37 56 -39 62 -21 65 18 3 19 11 17 105
l-2 102 -27 3 c-21 3 -27 9 -27 28 0 23 -3 24 -60 24 -57 0 -60 -1 -60 -24z"/>
</g>
</svg>
