<svg version="1.1" viewBox="0.0 0.0 960.0 540.0" fill="none" stroke="none" stroke-linecap="square" stroke-miterlimit="10" xmlns:xlink="http://www.w3.org/1999/xlink" xmlns="http://www.w3.org/2000/svg"><clipPath id="p.0"><path d="m0 0l960.0 0l0 540.0l-960.0 0l0 -540.0z" clip-rule="nonzero"/></clipPath><g clip-path="url(#p.0)"><path fill="#ffffff" d="m0 0l960.0 0l0 540.0l-960.0 0z" fill-rule="evenodd"/><path fill="#000000" fill-opacity="0.0" d="m43.144356 174.2336l897.6378 0l0 180.97636l-897.6378 0z" fill-rule="evenodd"/><path fill="#000000" d="m86.675606 313.23358q-8.0 0 -15.796875 -1.40625q-7.796875 -1.390625 -12.734375 -3.796875l0 -12.265625q12.796875 6.0 27.59375 6.0q20.796875 0 20.796875 -14.0q0 -4.796875 -2.265625 -7.71875q-2.265625 -2.9375 -6.53125 -5.140625q-4.265625 -2.203125 -13.859375 -6.0625q-13.203125 -5.34375 -19.078125 -11.734375q-5.859375 -6.4062347 -5.859375 -16.14061q0 -7.328125 4.0 -13.0q4.0 -5.671875 11.203125 -8.796875q7.203125 -3.140625 16.53125 -3.140625q7.59375 0 13.71875 1.203125q6.140625 1.203125 12.015625 3.875l0 11.734375q-11.59375 -5.203125 -23.46875 -5.203125q-9.59375 0 -14.671875 3.46875q-5.0625 3.46875 -5.0625 9.859375q0 4.40625 2.203125 7.40625q2.203125 3.0 6.53125 5.328125q4.328125 2.3281097 12.875 5.7968597q9.453125 3.875 14.921875 7.34375q5.46875 3.453125 8.328125 8.453125q2.875 5.0 2.875 12.46875q0 12.140625 -8.671875 18.8125q-8.65625 6.65625 -25.59375 6.65625zm86.79713 0q-19.0625 0 -28.796875 -9.796875q-9.734375 -9.796875 -9.734375 -27.0l0 -58.406235l13.59375 0l0 58.937485q0 11.859375 6.671875 17.9375q6.671875 6.0625 18.265625 6.0625q11.46875 0 18.125 -6.0625q6.671875 -6.078125 6.671875 -17.9375l0 -58.937485l13.609375 0l0 58.406235q0 17.0625 -9.734375 26.9375q-9.734375 9.859375 -28.671875 9.859375zm55.070374 -95.20311l37.45311 0q14.9375 0 22.9375 7.203125q8.0 7.203125 8.0 21.0625q0 10.26561 -5.46875 17.406235q-5.46875 7.125 -15.46875 9.671875l20.53125 37.859375l-14.125 0l-19.859375 -36.796875l-20.406235 0l0 36.796875l-13.59375 0l0 -93.20311zm35.187485 44.937485q8.9375 0 14.203125 -4.203125q5.265625 -4.2031097 5.265625 -12.468735q0 -9.0625 -5.140625 -12.921875q-5.125 -3.875 -14.328125 -3.875l-21.593735 0l0 33.468735l21.593735 0zm36.537415 -44.937485l14.40625 0l29.328125 74.67186l29.328125 -74.67186l14.40625 0l-37.203125 93.20311l-13.0625 0l-37.203125 -93.20311zm102.134705 0l61.453125 0l0 11.46875l-47.859375 0l0 29.468735l35.734375 0l0 11.328125l-35.734375 0l0 29.609375l47.859375 0l0 11.328125l-61.453125 0l0 -93.20311zm103.31793 57.874985l-33.859375 -57.874985l14.53125 0l26.0 44.937485l26.40625 -44.937485l14.390625 0l-34.265625 57.874985l0 35.328125l-13.203125 0l0 -35.328125zm158.12994 37.328125q-14.390625 0 -25.59375 -6.0q-11.203125 -6.0 -17.46875 -17.0q-6.265625 -11.0 -6.265625 -25.53125q0 -14.531235 6.265625 -25.593735q6.265625 -11.078125 17.46875 -17.078125q11.203125 -6.0 25.59375 -6.0q19.203125 0 32.140625 9.734375l0 13.078125q-11.609375 -10.265625 -30.9375 -10.265625q-10.796875 0 -19.140625 4.40625q-8.328125 4.390625 -13.0 12.59375q-4.65625 8.1875 -4.65625 19.124985q0 10.9375 4.734375 19.203125q4.734375 8.265625 13.0625 12.671875q8.328125 4.390625 19.0 4.390625q9.859375 0 17.65625 -2.59375q7.8125 -2.609375 14.46875 -8.34375l0 13.203125q-12.0 10.0 -33.328125 10.0zm48.006775 -95.20311l35.859375 0q15.0625 0 23.796875 7.546875q8.734375 7.53125 8.734375 21.390625q0 14.14061 -8.671875 21.406235q-8.65625 7.265625 -23.859375 7.265625l-22.265625 0l0 35.59375l-13.59375 0l0 -93.20311zm34.390625 46.26561q9.328125 0 14.796875 -3.859375q5.46875 -3.875 5.46875 -13.468735q0 -9.59375 -5.46875 -13.53125q-5.46875 -3.9375 -14.796875 -3.9375l-20.796875 0l0 34.79686l20.796875 0zm46.006287 -46.26561l42.796875 0q12.390625 0 19.1875 6.40625q6.8125 6.40625 6.8125 18.671875q0 6.921875 -3.265625 12.1875q-3.265625 5.2656097 -8.609375 7.8124847q14.9375 4.390625 14.9375 21.71875q0 8.140625 -3.53125 14.078125q-3.53125 5.921875 -9.671875 9.125q-6.125 3.203125 -13.59375 3.203125l-45.0625 0l0 -93.20311zm41.0625 39.999985q6.53125 0 10.265625 -3.5937347q3.734375 -3.59375 3.734375 -10.671875q0 -8.125 -3.671875 -11.390625q-3.671875 -3.265625 -11.265625 -3.265625l-26.53125 0l0 28.92186l27.46875 0zm0.9375 42.140625q7.859375 0 11.984375 -3.46875q4.140625 -3.46875 4.140625 -11.875q0 -8.390625 -4.34375 -11.984375q-4.328125 -3.609375 -12.984375 -3.609375l-27.203125 0l0 30.9375l28.40625 0z" fill-rule="nonzero"/></g></svg>